<?xml version="1.0" encoding="utf-8"?><svg width="282" height="236" viewBox="0 0 282 236" xmlns="http://www.w3.org/2000/svg" xmlns:xlink="http://www.w3.org/1999/xlink"><svg width="132" height="44" fill="none" viewBox="0 0 132 44" id="01" y="89" xmlns="http://www.w3.org/2000/svg"><g fill="#292F36"><path d="M11.634.977v.185l-.771.186V9.57l.77.185v.186H7.98v-.186l.771-.185V2.56l-3.026 7.508H5.34L1.413 2.561V9.37l1.028.385v.186H0v-.186l1.028-.385V1.348l-.771-.186V.977h1.599c.242 0 .456.028.628.085a1.606 1.606 0 0 1 .828.571c.1.129.185.286.27.443l2.799 5.353 2.14-5.353a1.82 1.82 0 0 1 .244-.471c.085-.129.2-.243.328-.343.128-.1.285-.171.471-.214.186-.043.414-.071.7-.071h1.37ZM16.201 3.36c.529 0 1.014.072 1.428.229.414.157.77.385 1.07.67.3.3.514.657.671 1.071.157.414.229.9.229 1.428 0 .528-.072 1.013-.229 1.427a3.17 3.17 0 0 1-.67 1.07c-.3.3-.657.515-1.071.672-.414.157-.9.228-1.428.228-.528 0-1.013-.071-1.427-.228a3.17 3.17 0 0 1-1.07-.671c-.3-.3-.514-.657-.671-1.07-.157-.415-.229-.9-.229-1.428 0-.528.072-1.014.229-1.428a3.17 3.17 0 0 1 .67-1.07c.3-.3.657-.514 1.071-.671.414-.157.885-.229 1.428-.229Zm0 6.552a.808.808 0 0 0 .443-.142c.143-.1.271-.257.385-.5a3.84 3.84 0 0 0 .286-.956c.071-.414.114-.928.114-1.542 0-.628-.043-1.142-.114-1.542-.071-.4-.171-.728-.286-.956-.114-.228-.242-.4-.385-.5a.743.743 0 0 0-.442-.142.808.808 0 0 0-.443.142c-.143.1-.271.257-.385.5a3.84 3.84 0 0 0-.286.956 9.21 9.21 0 0 0-.114 1.542c0 .628.043 1.142.114 1.542.072.4.171.728.286.956.114.229.242.4.385.5a.855.855 0 0 0 .442.142ZM25.837.977c.77 0 1.156.385 1.156 1.156v7.451l.771.186v.185h-1.156c-.314 0-.557-.043-.742-.143a1.62 1.62 0 0 1-.443-.328A1.404 1.404 0 0 1 25.138 9a2.212 2.212 0 0 1-.429.585 2.455 2.455 0 0 1-.585.4c-.243.128-.528.185-.857.185-.37 0-.713-.071-1.027-.214a2.136 2.136 0 0 1-.828-.642 3.227 3.227 0 0 1-.557-1.056c-.143-.429-.2-.914-.2-1.485 0-.571.072-1.056.2-1.485.143-.428.328-.77.585-1.056.243-.285.543-.5.885-.642a2.98 2.98 0 0 1 1.157-.214c.228 0 .428.028.613.071.186.057.343.114.472.186.157.071.285.157.4.257V1.39l-.772-.186v-.186h1.642V.977Zm-.9 3.283c-.1-.1-.185-.186-.3-.257a2.27 2.27 0 0 0-.313-.186.762.762 0 0 0-.357-.071.886.886 0 0 0-.457.128c-.143.086-.257.229-.371.443-.1.214-.186.528-.243.913-.057.4-.085.9-.085 1.528 0 .614.028 1.099.085 1.484.057.386.129.685.229.9.085.214.185.37.314.442a.653.653 0 0 0 .342.114c.2 0 .372-.057.514-.157.143-.1.257-.228.357-.357.114-.157.214-.328.3-.513V4.26h-.014ZM32.06 10.17c-1.099 0-1.955-.3-2.555-.9-.613-.6-.913-1.442-.913-2.498 0-.528.071-1.013.228-1.427.157-.414.372-.771.643-1.07.27-.3.6-.515.999-.672a3.375 3.375 0 0 1 1.285-.228c.485 0 .913.071 1.284.2.386.142.7.328.971.556a2.372 2.372 0 0 1 .828 1.813c0 .114 0 .229-.014.314a7.835 7.835 0 0 1-.043.243c-.029.086-.043.157-.072.214-.37.071-.77.143-1.199.186-.357.057-.77.1-1.242.128a23.9 23.9 0 0 1-1.47.057c0 .528.043.97.114 1.328.072.357.186.642.314.842.143.214.3.357.486.442.185.086.4.129.614.129.257 0 .5-.043.728-.143a1.866 1.866 0 0 0 .985-.913c.1-.2.142-.4.142-.614h.314c0 .257-.057.5-.171.742a1.959 1.959 0 0 1-.5.642 2.536 2.536 0 0 1-.77.443c-.286.128-.614.185-.985.185Zm-1.284-3.412c.285 0 .542 0 .77-.014.23-.015.415-.029.572-.043.185-.015.328-.043.456-.057.015-.086.043-.186.058-.286l.043-.314c.014-.114.014-.243.014-.371 0-.385-.029-.714-.086-.97a2.246 2.246 0 0 0-.228-.643c-.086-.157-.186-.286-.314-.343-.129-.057-.229-.1-.343-.1a.57.57 0 0 0-.343.129c-.114.086-.214.243-.314.457a4.484 4.484 0 0 0-.228.956c-.057.414-.057.942-.057 1.599ZM40.226 3.803c-.257 0-.486.057-.685.157-.2.1-.372.228-.514.357a3.62 3.62 0 0 0-.414.514v4.753l.77.186v.185h-3.597V9.77l.771-.186V3.931l-.77-.185V3.56h1.156c.3 0 .542.057.742.157.185.1.342.214.456.329.129.142.229.3.286.47.129-.185.285-.356.471-.513a2.89 2.89 0 0 1 .6-.357c.242-.114.514-.157.842-.157.457 0 .8.114 1.028.314.228.214.328.514.328.9 0 .285-.086.527-.257.699-.171.171-.414.257-.7.257h-.2c-.07 0-.114-.015-.156-.015-.057-.014-.115-.014-.157-.042v-1.8ZM47.22 5.473c0-.285-.029-.542-.086-.756a1.431 1.431 0 0 0-.228-.514.702.702 0 0 0-.314-.3.784.784 0 0 0-.343-.1c-.2 0-.37.057-.514.157-.142.1-.27.228-.356.357a2.97 2.97 0 0 0-.286.514v4.753l.771.186v.185h-3.597V9.77l.77-.186V3.931l-.77-.185V3.56h1.156c.3 0 .542.057.742.157.186.1.343.214.457.329.129.142.228.3.286.47a2.47 2.47 0 0 1 .428-.585 2.66 2.66 0 0 1 .57-.4c.23-.128.529-.185.872-.185.37 0 .713.057 1.013.186a2.5 2.5 0 0 1 .785.47c.214.2.386.415.514.672.128.257.186.514.186.785v4.11l.77.186v.186h-1.67c-.77 0-1.156-.385-1.156-1.156V5.473ZM1.356 18.977v-.528h9.92v.528l-2.083.528v10.777h7.48V19.505l-2.084-.528v-.528h9.92v.528l-2.084.528v22.268l2.084.528v.529h-9.92v-.543l2.084-.528V31.153h-7.48v10.606l2.084.528v.528h-9.92v-.528l2.083-.528V19.49l-2.084-.514ZM36.843 24.886c1.441 0 2.726.215 3.868.629a7.783 7.783 0 0 1 2.898 1.827c.799.799 1.413 1.77 1.827 2.912.414 1.142.628 2.426.628 3.868 0 1.442-.214 2.727-.628 3.868a7.783 7.783 0 0 1-1.827 2.898 7.9 7.9 0 0 1-2.898 1.827c-1.142.414-2.427.628-3.868.628-1.442 0-2.727-.214-3.869-.628a7.783 7.783 0 0 1-2.898-1.827 7.9 7.9 0 0 1-1.827-2.898c-.414-1.142-.628-2.426-.628-3.868 0-1.442.214-2.726.628-3.868a7.958 7.958 0 0 1 1.827-2.912c.8-.814 1.77-1.413 2.898-1.827 1.142-.415 2.427-.629 3.869-.629Zm0 17.744c.4 0 .785-.129 1.184-.386.4-.257.743-.7 1.057-1.342.314-.642.57-1.513.77-2.612.2-1.099.3-2.498.3-4.197 0-1.698-.1-3.097-.3-4.196-.2-1.1-.456-1.97-.77-2.612-.314-.643-.671-1.085-1.057-1.342-.385-.257-.785-.386-1.184-.386-.4 0-.786.129-1.185.386-.4.257-.742.7-1.057 1.341-.314.643-.57 1.514-.77 2.613-.2 1.099-.3 2.498-.3 4.197 0 1.698.1 3.097.3 4.196.2 1.1.456 1.97.77 2.612.315.643.671 1.085 1.057 1.342.4.257.785.386 1.185.386ZM72.144 30.625c0-.828-.072-1.542-.215-2.099-.142-.556-.314-1.027-.542-1.384-.228-.357-.471-.614-.728-.785-.271-.157-.528-.243-.785-.243-.443 0-.828.143-1.17.428a5.585 5.585 0 0 0-.886.957 7.933 7.933 0 0 0-.728 1.384V41.76l2.099.528v.528h-9.736v-.528l2.084-.528V30.625c0-.828-.07-1.542-.214-2.099-.142-.556-.314-1.027-.542-1.384-.228-.357-.471-.614-.728-.785-.271-.157-.528-.243-.785-.243-.443 0-.828.143-1.17.428a5.585 5.585 0 0 0-.886.957 7.07 7.07 0 0 0-.728 1.384V41.76l2.084.528v.528h-9.735v-.528l2.084-.528V26.457l-2.084-.529V25.4h3.126c.814 0 1.485.143 1.999.414.528.271.928.585 1.242.9.342.4.6.827.77 1.284.3-.585.671-1.099 1.114-1.57.4-.4.885-.756 1.456-1.085.585-.328 1.285-.485 2.127-.485 1.384 0 2.598.314 3.597.928 1.013.613 1.784 1.413 2.312 2.383.3-.599.671-1.141 1.114-1.641.4-.414.885-.8 1.456-1.142.585-.343 1.284-.528 2.127-.528.956 0 1.813.157 2.612.457.785.3 1.47.713 2.041 1.241a5.567 5.567 0 0 1 1.328 1.828c.314.7.47 1.441.47 2.226v11.135l2.085.528v.528h-4.525c-2.084 0-3.126-1.042-3.126-3.126v-9.05h-.014ZM91.286 43.33c-2.97 0-5.282-.815-6.924-2.456-1.641-1.642-2.47-3.883-2.47-6.766 0-1.442.215-2.727.629-3.869a8.603 8.603 0 0 1 1.742-2.912A7.238 7.238 0 0 1 86.96 25.5c1.057-.414 2.213-.628 3.455-.628 1.299 0 2.47.186 3.497.557 1.028.37 1.913.87 2.627 1.499a6.58 6.58 0 0 1 1.656 2.212 6.4 6.4 0 0 1 .57 2.698c0 .328-.014.614-.057.856-.043.243-.071.457-.128.643-.072.228-.129.428-.171.585a40.436 40.436 0 0 1-3.24.528c-.971.143-2.1.257-3.37.371-1.27.1-2.612.157-3.996.157 0 1.442.1 2.641.314 3.598.214.956.5 1.727.87 2.298.372.57.814.97 1.328 1.213.514.243 1.07.371 1.67.371.7 0 1.356-.128 1.97-.385a5.298 5.298 0 0 0 1.599-1.028 5.104 5.104 0 0 0 1.085-1.456c.27-.542.4-1.099.4-1.656h.87c0 .7-.157 1.37-.471 2.013a5.192 5.192 0 0 1-1.342 1.727c-.585.5-1.27.9-2.084 1.2-.828.3-1.741.456-2.726.456Zm-3.483-9.222c.785 0 1.484-.014 2.084-.057.6-.043 1.113-.072 1.527-.115.485-.042.9-.1 1.256-.17.043-.23.1-.486.171-.772.043-.257.086-.542.115-.856.028-.314.057-.642.057-.985 0-1.042-.086-1.913-.243-2.627-.157-.713-.371-1.284-.614-1.727-.242-.442-.528-.756-.828-.942-.314-.185-.628-.285-.927-.285-.3 0-.614.114-.928.328-.314.228-.585.642-.828 1.256s-.443 1.485-.614 2.598c-.143 1.113-.228 2.57-.228 4.354Z"/></g><path d="M115.852 42.458V28.341l-12.476-9.878v23.995h12.476ZM131.283 42.458V28.341l-12.276-9.878v23.995h12.276Z" fill="#292F36"/></svg><svg width="103" height="103" fill="none" viewBox="0 0 103 103" id="02" y="133" xmlns="http://www.w3.org/2000/svg"><path d="M51.443 101.606c27.86 0 50.446-22.585 50.446-50.446C101.889 23.3 79.304.714 51.443.714 23.583.714.997 23.299.997 51.16c0 27.86 22.585 50.446 50.446 50.446Z" fill="#fff"/><path d="M51.443 102.32c-28.207 0-51.16-22.954-51.16-51.16C.283 22.954 23.236 0 51.443 0c28.206 0 51.16 22.953 51.16 51.16 0 28.206-22.954 51.16-51.16 51.16Zm0-100.893C24.022 1.427 1.71 23.74 1.71 51.16c0 27.421 22.311 49.732 49.733 49.732 27.421 0 49.732-22.31 49.732-49.732 0-27.421-22.31-49.733-49.732-49.733Z" fill="#292F36"/><g fill="#292F36"><path d="M58.637 5.838c.343.029.643.043.885.043l-.028.229c-.4.057-.742.356-1.014.927l-3.397 6.795-.1-.014-.086-.014-2.155-7.58c-.143-.5-.386-.771-.728-.814l.028-.228c.314.057.728.1 1.242.157.671.057 1.17.1 1.5.1l-.03.228c-.3-.014-.513 0-.642.043-.128.043-.2.157-.214.3-.014.128.014.314.086.556l1.584 5.796 2.356-4.74c.2-.385.3-.699.328-.927.028-.243-.043-.428-.2-.557-.157-.128-.414-.2-.757-.243l.029-.228c.414.071.857.129 1.313.171ZM68.23 8.85a.407.407 0 0 0-.343.172c-.085.114-.185.3-.285.57l-2.041 5.425c-.1.271-.158.485-.158.628 0 .143.043.257.143.343.1.085.286.185.543.3l-.086.213a41.373 41.373 0 0 0-1.37-.556c-.628-.243-1.1-.4-1.413-.5l.085-.214c.271.086.471.129.6.129a.426.426 0 0 0 .342-.172c.086-.114.186-.3.286-.57l2.041-5.425c.1-.271.157-.485.157-.628a.423.423 0 0 0-.143-.343c-.1-.085-.285-.185-.542-.3l.085-.214c.3.129.757.314 1.385.557.585.228 1.056.385 1.399.485l-.086.214c-.257-.085-.456-.128-.6-.114ZM80.934 16.401a.55.55 0 0 0-.414.1c-.128.086-.285.257-.457.5l-4.14 5.61-.213-.157.556-9.022-3.668 4.968a2.76 2.76 0 0 0-.343.6.534.534 0 0 0 .043.442c.071.143.243.3.485.5l-.142.185a20.719 20.719 0 0 0-.943-.742c-.37-.271-.67-.486-.899-.614l.143-.186c.228.157.414.243.557.257a.55.55 0 0 0 .414-.1c.128-.1.285-.256.456-.5l3.37-4.567c.17-.243.285-.428.328-.557a.426.426 0 0 0-.043-.37c-.072-.115-.214-.258-.443-.443l.143-.186c.185.171.471.4.856.671.286.214.529.385.757.514l-.457 7.565 2.97-4.025c.17-.243.299-.443.342-.6a.594.594 0 0 0-.043-.442c-.071-.143-.243-.314-.485-.5l.142-.185c.215.185.529.428.943.742.37.271.67.485.899.614l-.143.185c-.243-.142-.428-.242-.57-.257ZM85.716 22.84c.371-.272.757-.572 1.17-.943.357.543.986 1.442 1.885 2.712a170.67 170.67 0 0 0 1.927 2.655c-.485.286-.9.543-1.27.8-.315.228-.572.428-.757.585l-.157-.214c.457-.4.77-.728.956-.97.186-.244.257-.5.243-.772-.014-.27-.186-.6-.457-.999l-.371-.514-5.41 3.854c-.257.186-.443.357-.528.486a.508.508 0 0 0-.057.457c.043.157.17.385.356.67l-.185.143a24.546 24.546 0 0 0-.97-1.413c-.457-.642-.8-1.1-1.028-1.385l.185-.142c.214.27.385.456.528.556a.5.5 0 0 0 .443.086c.157-.043.37-.157.628-.343l5.41-3.854-.371-.514c-.286-.4-.543-.642-.785-.756a1.028 1.028 0 0 0-.8-.029c-.285.1-.7.286-1.227.585l-.157-.214c.214-.114.47-.285.799-.528ZM88.457 42.652l-.229.072c-.085-.314-.2-.714-.37-1.2-.215-.627-.386-1.099-.515-1.413l.229-.07c.1.27.214.47.3.57.1.1.228.129.37.072.13-.043.286-.143.472-.3l1.584-1.3-.9-2.669-1.327-.057c-.428-.028-.756 0-.984.086-.229.086-.372.214-.429.4-.043.185-.014.456.086.785l-.228.071c-.115-.428-.258-.856-.4-1.285a9.063 9.063 0 0 0-.314-.813l.228-.072c.2.343.628.528 1.256.543l7.594.342.058.172-6.053 5.039c-.371.356-.514.685-.428 1.027Zm4.953-6.066-3.74-.157.842 2.512 2.898-2.355ZM89.499 53.572c.143-.057.214-.128.214-.228a.24.24 0 0 0-.043-.143 5.01 5.01 0 0 0-.171-.242 3.376 3.376 0 0 1-.486-.843 2.613 2.613 0 0 1-.17-.97c-.015-.8.142-1.485.456-2.07a3.216 3.216 0 0 1 1.413-1.342c.614-.314 1.356-.47 2.227-.485.9-.015 1.684.128 2.355.442s1.2.743 1.57 1.314c.372.57.572 1.213.572 1.927 0 .314-.03.6-.086.842a2.617 2.617 0 0 1-.243.642c-.1.186-.228.4-.4.628-.07.1-.114.186-.114.243 0 .143.243.243.714.285v.272c-.5-.029-1.399-.029-2.684 0v-.272a7.9 7.9 0 0 0 1.028-.242c.271-.086.5-.214.7-.371.27-.229.5-.529.656-.9.157-.37.229-.742.229-1.142a2.032 2.032 0 0 0-.529-1.341c-.342-.386-.828-.671-1.441-.886-.628-.2-1.342-.3-2.17-.285-.942.014-1.699.128-2.298.343-.6.214-1.028.528-1.313.942-.286.414-.414.942-.4 1.584.014.471.143.871.385 1.214.1.142.186.228.286.27.085.044.214.058.37.058l1.129-.014c.328 0 .556-.043.713-.1a.487.487 0 0 0 .3-.343c.057-.157.086-.414.086-.757h.228c-.014.386-.028.928-.014 1.656.014.543.028.957.057 1.214h-.228a.914.914 0 0 0-.1-.386c-.043-.071-.143-.128-.272-.157-.128-.028-.342-.043-.642-.028l-2.312.043v-.229c.128-.057.285-.086.428-.143ZM87.8 65.72c-.414-.129-.9-.257-1.456-.371.186-.5.457-1.342.842-2.541.457-1.428.785-2.512.985-3.24l.229.071c-.072.271-.1.471-.1.614a.434.434 0 0 0 .185.328c.115.086.314.171.586.257l5.524 1.742c.285.085.485.128.628.128a.407.407 0 0 0 .343-.171c.085-.114.17-.3.27-.557l.23.071c-.258.728-.6 1.799-1.057 3.226-.343 1.085-.585 1.87-.7 2.341-.47-.2-.899-.37-1.299-.485a6.62 6.62 0 0 0-.699-.185l.086-.257c.5.1.885.142 1.142.142a.872.872 0 0 0 .642-.257c.171-.157.314-.442.443-.827l.285-.928c.086-.272.128-.471.114-.6a.442.442 0 0 0-.171-.328c-.114-.086-.3-.172-.585-.257l-2.627-.828-.228.742c-.115.371-.086.657.1.857.185.2.385.342.613.442.229.1.372.171.429.2l-.086.257c-.357-.143-.7-.271-1.042-.371l-.528-.157a22.43 22.43 0 0 0-1.599-.428l.086-.257c.057.014.242.042.556.114.314.057.586.028.8-.086.214-.114.357-.328.457-.628l.228-.742-2.684-.842c-.285-.086-.485-.129-.628-.129a.365.365 0 0 0-.328.172c-.086.114-.171.3-.257.57l-.257.814c-.143.471-.2.842-.143 1.114.043.285.186.513.429.713.242.186.613.4 1.113.628l-.086.257c-.171-.128-.442-.214-.785-.328ZM83.732 83.235a.456.456 0 0 0-.014-.385c-.058-.129-.2-.286-.414-.5l-4.197-4.011c-.214-.2-.385-.329-.514-.386a.455.455 0 0 0-.385 0c-.129.057-.286.186-.486.386l-.171-.157c.271-.243.614-.6 1.056-1.042.457-.486.8-.857 1.014-1.1l.171.157a2.62 2.62 0 0 0-.357.5.456.456 0 0 0 .014.386c.058.128.2.285.415.5l4.196 4.01c.214.2.386.329.514.386a.455.455 0 0 0 .386 0c.128-.057.285-.186.485-.386l.171.157c-.242.214-.6.571-1.056 1.057-.443.456-.771.828-1 1.099l-.17-.157c.17-.214.285-.386.342-.514ZM71.841 91.942a.523.523 0 0 0 .072-.414c-.029-.157-.129-.357-.286-.628l-3.54-6.01.228-.142 8.08 4.04-3.126-5.31c-.157-.257-.286-.443-.414-.543a.588.588 0 0 0-.428-.128c-.158.014-.372.1-.643.242l-.128-.2c.257-.114.6-.314 1.042-.57.4-.243.7-.429.913-.586l.114.2c-.228.143-.385.285-.456.414a.523.523 0 0 0-.072.414c.029.157.129.357.286.628l2.883 4.896c.143.257.272.428.386.514.114.086.228.129.37.1.13-.029.33-.1.572-.228l.114.2c-.228.114-.542.285-.956.528-.3.17-.557.342-.771.485L69.3 86.46l2.54 4.31c.157.258.286.443.414.543.114.1.257.143.428.129.172-.015.386-.1.657-.243l.114.2c-.257.114-.6.314-1.042.57-.4.243-.7.43-.913.586l-.114-.2c.214-.157.37-.3.456-.414ZM63.99 93.812c.1.443.229.928.4 1.442-.642.114-1.713.343-3.226.657-1.513.328-2.57.57-3.198.728a16.129 16.129 0 0 0-.242-1.485c-.086-.385-.157-.7-.243-.928l.257-.057c.186.585.357 1 .514 1.27.157.272.357.443.614.529.257.085.628.071 1.099-.029l.614-.128-1.4-6.495c-.07-.314-.142-.543-.242-.671-.1-.129-.214-.214-.385-.228-.172-.029-.429 0-.771.057l-.043-.229c.4-.057.97-.171 1.684-.328.757-.171 1.328-.3 1.685-.4l.043.229c-.343.085-.571.171-.714.257a.53.53 0 0 0-.257.37c-.029.158-.014.4.057.715l1.399 6.494.614-.128c.47-.1.813-.243 1.013-.428.2-.186.314-.428.343-.728.028-.3.014-.757-.057-1.356l.257-.057c.042.228.1.542.185.927ZM45.048 89.801c.043-.442.057-.942.057-1.499.528.072 1.413.157 2.67.271 1.484.129 2.612.229 3.383.272l-.015.228c-.285-.014-.485 0-.614.043a.44.44 0 0 0-.285.243c-.057.128-.1.342-.129.628l-.513 5.78c-.029.286-.015.5.014.643a.402.402 0 0 0 .242.3c.129.057.329.114.6.143l-.014.228c-.757-.085-1.885-.2-3.369-.328a89.894 89.894 0 0 0-2.441-.186c.1-.5.171-.956.2-1.37.028-.3.043-.543.028-.728l.272.028c.014.514.042.885.114 1.142a.867.867 0 0 0 .385.571c.186.129.5.215.9.243l.97.086c.286.028.486.014.614-.015a.405.405 0 0 0 .286-.242c.057-.129.1-.343.128-.628l.243-2.741-.771-.071c-.386-.029-.657.057-.814.285-.143.229-.257.457-.3.7-.057.242-.085.4-.1.47l-.27-.028c.056-.385.1-.742.142-1.1l.043-.556c.028-.4.057-.942.085-1.656l.272.029c0 .057.014.243.014.57.014.33.086.586.257.757.157.186.4.286.714.314l.77.072.243-2.798c.029-.285.014-.5-.014-.642a.405.405 0 0 0-.243-.286c-.128-.057-.328-.1-.6-.128l-.856-.072c-.485-.042-.856-.014-1.127.1-.257.1-.457.3-.6.571-.143.272-.257.685-.371 1.228l-.271-.029c0-.214.028-.5.071-.842ZM33.814 84.505c.214-.042.457 0 .714.115.3.128.5.313.613.556.115.257.129.614.058 1.085l-.215 1.17a9.196 9.196 0 0 0-.128.971c-.014.229.043.443.143.628.1.186.285.329.556.443l1.028.428 1.042-2.484c.114-.27.171-.47.186-.614a.427.427 0 0 0-.143-.356c-.1-.1-.271-.2-.528-.314l.085-.215c.329.157.771.357 1.356.6.614.257 1.085.442 1.4.542l-.086.215a2.648 2.648 0 0 0-.6-.157c-.142 0-.257.042-.342.157-.1.1-.2.285-.314.556l-2.242 5.353c-.114.271-.17.471-.185.614a.427.427 0 0 0 .143.357c.1.1.27.2.528.328l-.086.214c-.3-.142-.728-.342-1.299-.585-.285-.114-.585-.243-.928-.385-.342-.143-.57-.229-.7-.286-.556-.243-.998-.514-1.327-.842-.328-.328-.514-.67-.6-1.042a1.679 1.679 0 0 1 .115-1.085 2.133 2.133 0 0 1 1.542-1.256c.4-.086.885-.072 1.413.057l-.129-.071c-.3-.186-.528-.371-.67-.571a1.304 1.304 0 0 1-.272-.628c-.042-.229-.028-.514.029-.857l.2-1.213a3.61 3.61 0 0 0 .071-.571.78.78 0 0 0-.057-.343.347.347 0 0 0-.214-.185.445.445 0 0 0-.328-.029c-.1.029-.243.1-.429.2l-.114-.186c.257-.157.5-.27.714-.314Zm.714 5.082a1.365 1.365 0 0 0-.828.385c-.215.215-.4.5-.557.871-.243.585-.3 1.1-.143 1.513.157.414.543.757 1.185 1.028.228.1.4.143.542.129a.446.446 0 0 0 .343-.172c.1-.114.2-.3.3-.556l1.113-2.656-.728-.3c-.47-.2-.885-.285-1.227-.242ZM22.68 86.447a.43.43 0 0 0 .37-.057c.115-.072.272-.229.458-.457l3.582-4.568c.186-.228.3-.414.343-.542a.426.426 0 0 0-.043-.372c-.071-.114-.214-.27-.428-.456l.143-.186c.271.243.642.557 1.142.942.528.414.928.714 1.199.9l-.143.185c-.228-.171-.414-.271-.542-.3a.388.388 0 0 0-.371.057c-.115.072-.272.229-.457.457l-3.583 4.568c-.186.228-.3.414-.343.542a.426.426 0 0 0 .043.371c.071.115.214.272.428.457l-.143.186a42.587 42.587 0 0 0-1.156-.957c-.5-.385-.899-.685-1.184-.885l.142-.185c.243.157.414.257.543.3ZM13.458 76.283c-.057-.642.086-1.284.414-1.898.343-.628.857-1.185 1.57-1.713.7-.5 1.4-.828 2.128-.957.727-.128 1.398-.085 2.026.157a3.4 3.4 0 0 1 1.57 1.242c.443.6.686 1.228.743 1.87.057.643-.086 1.285-.414 1.899-.343.628-.857 1.184-1.57 1.713-.7.5-1.4.828-2.127.956-.714.128-1.399.086-2.027-.157a3.464 3.464 0 0 1-1.57-1.228c-.443-.613-.686-1.241-.743-1.884Zm2.142 2.541c.5.1 1.07.057 1.698-.143.628-.2 1.257-.528 1.913-1.013.657-.471 1.17-.985 1.527-1.528.372-.542.571-1.084.6-1.598a2.01 2.01 0 0 0-.357-1.356 1.89 1.89 0 0 0-1.199-.757c-.5-.1-1.07-.057-1.699.143-.628.2-1.256.528-1.912.999-.657.471-1.17.985-1.528 1.542-.37.542-.57 1.07-.614 1.598-.042.514.086.971.357 1.356.3.4.7.657 1.214.757ZM14.558 59.097c.17.128.3.342.385.628.1.3.086.585-.029.828-.114.257-.385.5-.799.742l-1.042.585a9.2 9.2 0 0 0-.814.528 1.118 1.118 0 0 0-.385.514c-.071.2-.071.428.014.714l.329 1.07 2.569-.799c.285-.085.471-.171.585-.257a.459.459 0 0 0 .186-.328c.014-.129-.029-.343-.1-.614l.228-.071c.086.342.214.828.414 1.427.2.643.357 1.114.471 1.413l-.228.072c-.1-.272-.186-.457-.271-.557a.447.447 0 0 0-.343-.171c-.143 0-.357.028-.628.128l-5.539 1.713c-.285.086-.47.171-.585.257a.459.459 0 0 0-.185.328c-.015.143.028.343.1.614l-.229.072c-.071-.315-.2-.771-.385-1.37-.086-.286-.2-.615-.314-.957-.114-.343-.2-.585-.243-.714-.186-.585-.243-1.099-.2-1.556.043-.457.186-.828.414-1.127.229-.3.528-.5.9-.614.285-.086.599-.114.942-.072.342.043.67.186 1.013.443.343.257.628.628.87 1.127l-.013-.142c-.043-.357-.058-.643 0-.885.057-.243.157-.443.3-.614.156-.171.385-.357.684-.528l1.057-.628c.214-.114.385-.229.485-.314a.923.923 0 0 0 .228-.257.39.39 0 0 0 .015-.286.487.487 0 0 0-.186-.271 2.05 2.05 0 0 0-.428-.2l.071-.214c.286.1.528.214.686.343Zm-3.412 3.825a1.392 1.392 0 0 0-.828-.385c-.3-.029-.642.014-1.028.143-.614.185-1.028.485-1.256.87-.228.386-.228.914-.028 1.556.07.229.157.4.242.5.086.1.214.157.357.157s.357-.043.614-.114l2.74-.857-.228-.756c-.143-.514-.342-.885-.585-1.114ZM13.458 45.55c.543-.243.871-.7 1.014-1.384a1.688 1.688 0 0 0-.029-.757 1.394 1.394 0 0 0-.4-.642c-.2-.186-.47-.315-.827-.372a1.467 1.467 0 0 0-.828.072c-.257.1-.514.257-.757.47a9.72 9.72 0 0 0-.842.857c-.357.4-.67.728-.942.957a2.913 2.913 0 0 1-.9.542c-.328.129-.699.143-1.113.072-.428-.086-.785-.243-1.042-.5a1.909 1.909 0 0 1-.528-.914 2.718 2.718 0 0 1-.014-1.127c.043-.243.1-.429.171-.6.071-.171.143-.3.228-.4.086-.1.172-.214.286-.328.143-.157.214-.271.243-.357.014-.071-.015-.128-.086-.185-.071-.057-.2-.1-.371-.157l.043-.257c.442.114 1.213.285 2.34.5l-.042.256c-.4-.042-.771-.028-1.142.057a1.86 1.86 0 0 0-.928.471c-.257.229-.428.557-.5.957a1.5 1.5 0 0 0 .029.756c.071.243.2.429.371.586.186.157.4.257.657.314.414.071.77.014 1.07-.186.3-.2.586-.457.857-.756.271-.3.442-.5.542-.6.4-.428.728-.757 1-1 .27-.242.57-.413.899-.527.328-.114.685-.129 1.07-.057.471.085.857.27 1.142.542.286.285.471.614.571 1.014.1.4.1.827.014 1.284-.07.371-.157.657-.285.885a2.689 2.689 0 0 1-.443.614c-.142.157-.214.271-.242.357-.014.071.014.128.085.186.072.056.2.114.372.157l-.043.256c-.414-.114-1.328-.3-2.74-.556l.042-.257c.8.071 1.456 0 1.998-.243ZM10.632 33.517c-.4-.215-.856-.414-1.37-.614.314-.557.842-1.528 1.556-2.912.713-1.37 1.213-2.341 1.484-2.927.471.3.9.557 1.285.757.343.186.642.314.87.414l-.128.243c-.57-.229-.999-.372-1.299-.414-.3-.057-.57 0-.8.142-.228.143-.456.429-.67.857l-.286.57 5.896 3.07c.285.157.514.228.67.243.158.014.3-.029.429-.143.128-.114.271-.328.443-.628l.214.114c-.214.357-.486.856-.828 1.513a50.161 50.161 0 0 0-.771 1.542l-.214-.114c.143-.314.242-.557.257-.714a.503.503 0 0 0-.129-.443c-.114-.128-.3-.257-.585-.414l-5.895-3.083-.3.557c-.229.428-.329.77-.314 1.042.014.271.128.514.342.728.214.214.571.5 1.085.828l-.128.242a19.315 19.315 0 0 0-.814-.456ZM20.71 17.115c.242-.242.442-.47.585-.642l.171.171a.857.857 0 0 0-.114.528c.014.215.072.514.186.871l1.299 3.869 1.513 1.498c.214.2.371.343.5.4a.455.455 0 0 0 .385 0c.128-.057.285-.186.5-.371l.17.171c-.27.243-.627.585-1.07 1.028-.47.471-.813.842-1.028 1.085l-.17-.171c.185-.215.313-.372.37-.5a.41.41 0 0 0-.014-.386c-.057-.128-.2-.3-.4-.5l-1.256-1.241-4.767-1.399c-.286-.086-.5-.114-.643-.1a.49.49 0 0 0-.314.129l-.171-.172c.228-.2.485-.428.742-.7.528-.541.914-.927 1.128-1.184l.171.171c-.385.386-.471.686-.257.9.086.085.2.142.371.2l4.011 1.241-1.056-3.154c-.157-.457-.314-.771-.485-.928-.157-.157-.329-.2-.514-.143-.186.057-.4.2-.657.443l-.171-.172c.342-.314.656-.628.985-.942ZM29.346 11.363a.428.428 0 0 0-.1.37c.029.143.1.343.243.6l2.755 5.11c.142.258.257.429.37.529.1.1.23.128.358.114.128-.014.328-.1.57-.228l.757-.414c.428-.229.728-.471.885-.714.157-.243.214-.514.172-.842-.043-.329-.172-.743-.4-1.285l.242-.128c.1.228.243.513.429.856.214.385.47.814.785 1.285-.471.228-1.27.642-2.37 1.242-1.313.713-2.312 1.256-2.969 1.641l-.114-.2c.243-.142.414-.27.5-.37a.428.428 0 0 0 .1-.372 2.159 2.159 0 0 0-.243-.6l-2.784-5.11c-.142-.257-.257-.428-.37-.528a.42.42 0 0 0-.358-.114c-.142.014-.328.085-.585.214l-.1-.214c.3-.129.742-.357 1.328-.685.556-.3.985-.543 1.284-.728l.115.2a2.48 2.48 0 0 0-.5.37ZM46.732 12.276c.086.428.215.914.371 1.456-.528.086-1.398.243-2.626.485-1.47.286-2.57.514-3.326.686l-.043-.229c.271-.071.471-.128.585-.214a.424.424 0 0 0 .2-.314c.014-.143 0-.357-.057-.642l-1.113-5.696c-.057-.285-.114-.485-.2-.614-.086-.128-.171-.2-.314-.214-.129-.028-.343-.014-.614.029l-.043-.229c.757-.128 1.87-.328 3.326-.613 1.128-.229 1.927-.386 2.384-.5.043.514.114.97.186 1.37.057.3.114.529.17.7l-.256.057c-.157-.485-.3-.842-.428-1.07a.934.934 0 0 0-.528-.443c-.229-.072-.529-.072-.942.014l-.957.186c-.271.057-.471.114-.585.185a.455.455 0 0 0-.214.314c-.015.143 0 .357.057.643l.528 2.712.757-.157c.385-.072.613-.243.699-.5.086-.257.114-.5.1-.742-.014-.243-.029-.4-.029-.471l.257-.057c.043.385.1.742.172 1.085l.114.542c.071.385.2.928.385 1.613l-.257.057c-.014-.057-.071-.228-.171-.542-.1-.314-.243-.529-.457-.657-.214-.128-.457-.157-.77-.1l-.757.143.542 2.755c.057.285.114.485.186.614a.455.455 0 0 0 .314.214c.128.014.342 0 .614-.057l.842-.172c.47-.1.828-.228 1.056-.4.228-.17.357-.413.414-.713.057-.3.057-.728.014-1.285l.257-.057c.043.214.086.486.157.828Z"/></g><g fill="#292F36" stroke="#fff" stroke-miterlimit="10"><path d="M37.111 66.79a16.804 16.804 0 0 1-1.727-2.926c-.5-1.07-.9-2.155-1.199-3.269-.657-4.896-.67-9.65-.057-14.26a84.823 84.823 0 0 1 2.983-13.632c.229-.5.728-.742 1.5-.742.77 0 1.527.171 2.297.514.771.342 1.4.799 1.899 1.37.5.57.614 1.17.342 1.784-.428.914-.842 2.156-1.256 3.697a81.995 81.995 0 0 0-1.199 5.14 93.245 93.245 0 0 0-.999 5.88 84.518 84.518 0 0 0-.628 5.881c-.129 1.87-.157 3.569-.086 5.082.072 1.513.3 2.712.685 3.583a77.988 77.988 0 0 0 4.94-7.494 129.992 129.992 0 0 0 4.21-7.865 179.886 179.886 0 0 0 3.755-8.066c1.184-2.712 2.355-5.395 3.497-8.036a104.766 104.766 0 0 0 1.699-4.24c.556-1.498 1.284-2.769 2.212-3.84.386-.342.685-.456.885-.342.214.114.357.328.428.657.072.328.115.67.115 1.027v.828c-.272 1.756-.5 3.498-.686 5.225a20.583 20.583 0 0 1-1.199 4.996 345.57 345.57 0 0 1-3.069 7.523 136.83 136.83 0 0 1-3.383 7.35 92.899 92.899 0 0 1-3.897 7.024 61.774 61.774 0 0 1-4.568 6.51c-1.298 1.64-2.597 2.511-3.868 2.611-1.328.115-2.512-.556-3.626-1.97ZM60.75 60.31c-.77-1.07-1.528-2.156-2.27-3.269a6.455 6.455 0 0 1-1.113-3.668c0-1.485.428-2.898 1.285-4.226.856-1.313 1.84-2.384 2.954-3.183.457-.3.928-.557 1.4-.742.47-.186.984-.172 1.527.057.228.114.47.2.713.257.243.057.471.128.657.2.186.071.4.185.628.342.228.157.343.357.343.628 0 1.07.028 1.942.085 2.612.057.671.143 1.242.257 1.728.114.485.229.899.343 1.256.114.371.228.756.342 1.17.072.386.058.714-.057.971-.114.271-.4.3-.856.114-.842-.3-1.47-.913-1.87-1.841-.4-.928-.7-1.756-.885-2.527a7.446 7.446 0 0 0-.286-.8 8.746 8.746 0 0 1-.285-.799c-.3-.07-.671.03-1.085.314-.414.286-.8.686-1.113 1.171-.329.5-.543 1.07-.628 1.727-.1.657.028 1.3.37 1.956.158.228.372.514.657.828.286.328.571.656.857.999.285.343.57.685.856 1 .286.313.528.584.714.77.228.229.385.357.457.371.071.014.271-.028.57-.142.386-.186.971-.443 1.757-.743.785-.3 1.612-.614 2.469-.913.856-.3 1.684-.557 2.47-.771.785-.214 1.384-.314 1.812-.314.272 0 .457.1.571.285.114.114.1.272-.057.457a3.865 3.865 0 0 1-.6.571 9.038 9.038 0 0 1-.77.514c-.271.157-.443.243-.514.285-.657.386-1.47.814-2.47 1.3-.999.47-1.855.941-2.583 1.398-.072.072-.214.157-.428.229a2.223 2.223 0 0 0-.486.228c.457 1.028.785 1.927.97 2.67.186.742.258 1.455.2 2.155a9.456 9.456 0 0 1-.427 2.098 35.39 35.39 0 0 1-.914 2.441 51.518 51.518 0 0 1-1.642 2.527c-.556.8-1.17 1.527-1.87 2.184a8.274 8.274 0 0 1-2.24 1.541c-.8.386-1.685.571-2.642.571a6.196 6.196 0 0 1-1.555-.2c-.5-.128-.914-.413-1.257-.827-.885-.957-1.37-1.999-1.484-3.126a9.21 9.21 0 0 1 .285-3.355 9.988 9.988 0 0 1 .857-1.898c.842-1.457 1.77-2.684 2.783-3.698 1.028-.999 2.084-1.97 3.198-2.883Zm1.956 2.584c-.429.428-1 1.027-1.728 1.813a24.264 24.264 0 0 0-2.041 2.555 17.064 17.064 0 0 0-1.542 2.726c-.4.9-.5 1.67-.314 2.327.771-.343 1.556-.914 2.356-1.699.799-.785 1.513-1.641 2.127-2.584.613-.942 1.042-1.87 1.284-2.783.243-.928.2-1.713-.142-2.355Z"/></g><path d="M51.443 83.549c-17.858 0-32.389-14.532-32.389-32.389 0-17.857 14.531-32.389 32.389-32.389 17.857 0 32.389 14.532 32.389 32.389 0 17.857-14.532 32.389-32.39 32.389Zm0-63.35c-17.072 0-30.962 13.889-30.962 30.961s13.89 30.961 30.962 30.961S82.404 68.232 82.404 51.16 68.515 20.199 51.443 20.199Z" fill="#292F36"/></svg><svg width="164" height="44" fill="none" viewBox="0 0 164 44" id="03" xmlns="http://www.w3.org/2000/svg"><path d="M35.4 43.548H8.582a7.978 7.978 0 0 1-7.98-7.979V8.751A7.978 7.978 0 0 1 8.583.77H35.4a7.978 7.978 0 0 1 7.979 7.98v26.818a7.978 7.978 0 0 1-7.98 7.979Z" fill="#292F36"/><path d="M29.697 22.553c.763.957 1.15 2.07 1.15 3.33 0 1.852-.617 3.305-1.852 4.335-1.235 1.029-3.003 1.561-5.303 1.561h-10.05V10.167h9.808c2.203 0 3.898.485 5.097 1.441 1.199.957 1.804 2.325 1.804 4.092 0 1.308-.351 2.386-1.041 3.258-.69.871-1.598 1.428-2.724 1.695 1.32.314 2.348.944 3.111 1.9Zm-10.836-3.547h3.426c1.817 0 2.725-.775 2.725-2.325 0-1.55-.933-2.324-2.785-2.324H18.86v4.649Zm6.635 6.15c0-.774-.254-1.38-.763-1.816-.508-.436-1.235-.653-2.167-.653h-3.693v4.855h3.73c1.924-.012 2.893-.8 2.893-2.386Z" fill="#fff"/><g fill="#292F36"><path d="m68.163 31.78-4.673-8.161h-1.187v8.16h-5.23V10.167h8.923c1.707 0 3.16.29 4.334.884 1.187.594 2.07 1.405 2.664 2.434.593 1.029.884 2.203.884 3.535 0 1.574-.436 2.906-1.296 4.008-.871 1.102-2.118 1.852-3.777 2.264l5.133 8.5h-5.775v-.013Zm-5.86-11.733h3.233c1.04 0 1.804-.23 2.288-.69.484-.46.739-1.138.739-2.034 0-.86-.255-1.526-.751-2.022-.496-.484-1.26-.739-2.276-.739h-3.233v5.485ZM97.536 27.844h-8.1l-1.344 3.947h-5.497l7.919-21.454h6.017l7.918 21.454h-5.557l-1.356-3.947Zm-1.344-3.983-2.688-7.943-2.724 7.943h5.412ZM133.302 31.78h-5.231l-8.741-13.27v13.27h-5.231V10.166h5.231l8.741 13.391v-13.39h5.231v21.611ZM162.626 26.573c-.908 1.635-2.216 2.918-3.911 3.838-1.707.92-3.705 1.38-6.005 1.38h-8.16V10.18h8.16c2.325 0 4.335.447 6.018 1.343 1.695.896 2.99 2.156 3.898 3.79.908 1.635 1.356 3.5 1.356 5.63 0 2.107-.46 3.983-1.356 5.63Zm-5.63-1.09c1.126-1.077 1.695-2.603 1.695-4.552 0-1.961-.569-3.475-1.695-4.552-1.126-1.078-2.712-1.623-4.758-1.623h-2.47v12.35h2.47c2.046 0 3.632-.533 4.758-1.623Z"/></g></svg><svg width="146" height="45" fill="none" viewBox="0 0 146 45" id="04" y="44" xmlns="http://www.w3.org/2000/svg"><g fill="#292F36"><path d="m21.223 8.957 1.071-.228c.271 0 .5.057.657.171.157.115.242.229.242.329s-.028.257-.071.442c-.043.186-.443 2.099-1.185 5.71a777.38 777.38 0 0 0-1.627 8.08c1.656-2.256 3.597-5.025 5.81-8.323 2.212-3.297 3.511-5.481 3.882-6.566.114-.343.271-.6.457-.785.186-.186.357-.3.5-.328a3.52 3.52 0 0 1 .67-.057c.3 0 .657.07 1.071.2.414.128.628.342.628.656 0 .571-.856 2.241-2.555 4.982-1.699 2.74-3.654 5.652-5.852 8.736-2.199 3.083-4.026 5.524-5.496 7.323-.257.314-.585.485-.957.485a4.04 4.04 0 0 1-1.184-.2c-.414-.128-.628-.357-.628-.7 0-1.07.942-6.237 2.826-15.473-1.613 2.084-3.569 4.996-5.867 8.722-2.398 3.854-3.754 6.252-4.068 7.166-.171.556-.371.885-.6.97-.157.072-.328.1-.5.1l-1.155.129c-.229 0-.429-.057-.629-.186-.185-.128-.285-.257-.285-.4 0-.385.542-1.555 1.613-3.497 1.07-1.941 2.341-4.054 3.783-6.338a120.676 120.676 0 0 1 4.51-6.652c1.57-2.155 2.784-3.611 3.64-4.34a.853.853 0 0 1 .6-.227l.7.1ZM38.382 18.636c.742 0 1.113.257 1.113.756 0 .271-.057.471-.186.6-.128.128-.4.542-.813 1.27-.414.714-.871 1.628-1.37 2.755-.5 1.114-.829 2.07-.971 2.855-.029.1-.043.229-.043.414 0 .542.143.8.442.8.3 0 .643-.143 1.042-.414.4-.286.757-.572 1.071-.9.314-.314.614-.642.914-.97.3-.329.47-.529.528-.572a.424.424 0 0 1 .257-.07c.185 0 .3.142.342.427.043.286.057.571.057.885 0 .314-.028.514-.085.628-.286.557-.9 1.228-1.87 2.013-.957.785-1.842 1.17-2.627 1.17-.785 0-1.37-.242-1.727-.713s-.557-1.014-.557-1.585c0-.585.1-1.084.3-1.527a13.027 13.027 0 0 1-2.783 2.684c-1.057.728-1.899 1.099-2.57 1.099-.67 0-1.199-.2-1.627-.6-.543-.5-.8-1.184-.8-2.07 0-.885.2-1.77.6-2.669.4-.885.914-1.713 1.556-2.44a14.924 14.924 0 0 1 2.127-2.013c1.613-1.27 3.112-1.899 4.482-1.899.528 0 .956.086 1.285.257.328.171.542.4.628.657.228-.357.428-.571.6-.671.128-.114.37-.157.684-.157Zm-1.942 1.627c-1.67 0-3.397.928-5.181 2.784a13.223 13.223 0 0 0-1.756 2.383c-.543.928-.8 1.556-.8 1.899 0 .343.1.514.3.514.271 0 1.028-.543 2.284-1.613 1.256-1.07 2.084-1.87 2.484-2.384.457-.571 1.342-1.77 2.67-3.583Z"/><path d="m49.487 10.899.6.143c.085 0 .171.042.228.128.071.086.1.171.1.243 0 .071-.1.285-.314.628-.214.342-.443.728-.728 1.156-.285.428-.428.67-.443.714a24.831 24.831 0 0 1 1.614-.086c.314 0 .528.029.656.071.114.043.257.172.4.371.157.2.285.357.414.457.128.1.185.257.185.457s-.128.386-.37.514a1.952 1.952 0 0 1-.8.257c-2.27.228-3.512.342-3.74.357-.785 1.213-1.899 3.097-3.312 5.652-1.413 2.556-2.17 4.169-2.255 4.811-.043.3-.057.528-.057.714 0 .385.2.57.6.57.399 0 .841-.156 1.327-.456a10.93 10.93 0 0 0 1.342-1c1.099-.97 1.684-1.47 1.755-1.47.257 0 .386.443.386 1.314 0 .47-.214.899-.657 1.284-.985.843-1.813 1.485-2.484 1.913-.67.428-1.341.643-2.027.643-.142 0-.285-.015-.414-.043-.785-.143-1.356-.428-1.712-.857-.372-.428-.543-.999-.543-1.713 0-.713.214-1.598.642-2.626a32.582 32.582 0 0 1 1.6-3.283 114.536 114.536 0 0 1 3.154-5.325l-.557.072c-1.128.128-1.784.185-1.97.185h-.128c-.286 0-.557-.057-.814-.171-.257-.114-.4-.257-.4-.414 0-.171.072-.328.215-.485.142-.157.228-.286.257-.372.07-.214.328-.456.77-.713.443-.257.771-.4 1-.414l.656-.043c.214-.014.443-.014.7-.029.257-.014.456-.014.6-.028l1.312-.057c.814-1.228 1.385-2.027 1.685-2.37.314-.357.485-.542.528-.57.043-.03.143-.058.3-.058l.7-.071Z"/><path d="M58.266 25.16c.185 0 .3.142.342.427.043.286.058.571.058.885 0 .314-.03.514-.086.628-.286.543-.9 1.214-1.856 1.999-.956.785-1.87 1.185-2.726 1.185a2.536 2.536 0 0 1-1.47-.471c-.443-.314-.672-.871-.672-1.656 0-.785.215-1.57.629-2.327-2.427 3.04-4.311 4.554-5.696 4.554a1.7 1.7 0 0 1-1.328-.586c-.342-.385-.5-.785-.5-1.213 0-.414.058-.842.172-1.285.114-.442.243-.842.371-1.199.129-.357.329-.785.586-1.299.256-.514.456-.885.57-1.127.115-.243.329-.586.614-1.057.286-.47.643-1.113 1.1-1.912.456-.8.827-1.4 1.127-1.785.3-.385.586-.585.871-.585.285 0 .528.114.742.343.214.228.329.428.329.57 0 .143-.329.8-.985 1.97-1.927 3.498-2.898 5.525-2.898 6.11 0 .143.057.214.157.214.47 0 1.642-1.014 3.497-3.04 1.856-2.027 2.94-3.326 3.24-3.897.3-.571.572-1.057.857-1.442.271-.386.485-.628.628-.714.414-.271.956-.414 1.627-.442.114 0 .186 0 .243.014.057.014.129.1.2.243a.9.9 0 0 1 .114.37c-.086.272-.471 1-1.17 2.185-.686 1.184-1.071 1.855-1.142 1.998-1.157 2.384-1.728 3.94-1.728 4.654 0 .414.157.613.471.613.571-.07 1.257-.528 2.056-1.356.3-.3.585-.613.87-.927.286-.314.472-.5.529-.543a.344.344 0 0 1 .257-.1Z"/><path d="M62.505 21.776c2.299-2.612 4.268-3.925 5.881-3.925.4 0 .729.114.986.357.256.242.385.542.385.927 0 .386-.271 1.014-.814 1.913a30.854 30.854 0 0 1-1.499 2.256c-.242.314-.514.47-.828.47a.848.848 0 0 1-.713-.342 1.264 1.264 0 0 1-.257-.785c0-.671.357-1.442 1.085-2.284l-.029-.029c-.328.029-1.113.671-2.398 1.899a95.123 95.123 0 0 0-3.255 3.326 51.599 51.599 0 0 0-2.912 3.583c-.3.414-.556.628-.77.628-.214 0-.486-.072-.828-.2-.343-.128-.557-.228-.628-.285-.072-.058-.115-.157-.115-.3 0-.129.043-.3.115-.471.071-.186.228-.443.428-.771.2-.328.528-.87.956-1.613.428-.742 1.085-1.87 1.984-3.369.9-1.499 1.428-2.412 1.613-2.726.371-.643.671-1.114.914-1.4.443-.556 1.185-.827 2.227-.827.228 0 .357.143.357.442 0 .457-.429 1.328-1.27 2.584l-.615.942ZM78.25 18.807c0 .642-.257 1.213-.785 1.699-.528.485-1.113.728-1.784.728-.214 0-.357-.058-.428-.157-.072-.1-.1-.243-.1-.4 0-.157.014-.328.057-.485-.357.114-.742.3-1.17.542-.429.243-.957.6-1.585 1.085s-.942.828-.942 1.07c0 .072.114.115.342.115.229 0 .586-.086 1.057-.243.47-.157.813-.243.999-.243.185 0 .314.015.371.029.128.071.257.214.414.442.143.229.214.414.214.543 0 .128-.128.3-.385.514a2.83 2.83 0 0 1-.857.485c-.328.114-.542.2-.642.257-2.056 1.156-3.084 1.941-3.084 2.37 0 .756.643 1.141 1.942 1.141.828 0 1.67-.256 2.498-.785.714-.442 1.356-.899 1.927-1.37.571-.457.928-.742 1.085-.856.157-.115.271-.157.342-.157.257 0 .386.285.386.856s-.029.942-.1 1.113c-.072.186-.257.4-.585.671-2.084 1.699-4.069 2.555-5.924 2.555-1 0-1.785-.142-2.384-.413-1.1-.5-1.642-1.257-1.642-2.284 0-1.342.928-2.37 2.798-3.055-.371-.172-.614-.371-.714-.643-.114-.257-.157-.67-.157-1.241 0-.571.272-1.17.8-1.813a6.21 6.21 0 0 1 1.955-1.57c1.713-.928 3.255-1.385 4.597-1.385.328 0 .642.071.985.228.342.157.5.371.5.657ZM111.567 8.872h.186c.057 0 .1 0 .114.014.014.014.028.014.057.029.028 0 .043.014.071.043a.804.804 0 0 0 .2.128c.114.086.171.186.171.3 0 .114-.114.357-.342.728-.229.37-.814 1.27-1.77 2.726a315.103 315.103 0 0 0-5.867 9.307c-2.983 4.968-4.496 7.466-4.525 7.494-.029.029-.043.057-.057.086-.015.057-.043.086-.114.086l-.2-.043-.4.1-.228-.043-.243.043h-.086l-.813.114c-.486 0-.728-.171-.728-.5 0-.143.043-.314.128-.514.3-.713 1.827-3.297 4.568-7.78-1.798.044-3.583.072-5.339.072l-3.14-.014c-.514.828-1.228 1.998-2.127 3.526-1.941 3.326-2.969 4.996-3.097 5.024-.129.029-.229.057-.315.057-.085 0-.157-.042-.214-.142-.071-.086-.114-.143-.142-.143a.412.412 0 0 0-.157.057c-.072.043-.186.057-.343.057l-.343-.014-.128-.086c-.014 0-.029.015-.043.043-.014.029-.057.043-.114.043-.414 0-.628-.171-.628-.528 0-.229.085-.543.243-.928.17-.386.385-.8.656-1.242.271-.443.957-1.513 2.084-3.183 1.114-1.67 1.67-2.513 1.67-2.527-.185-.014-.4-.014-.642-.028-.5 0-.842-.015-1.056-.058-.557-.1-.942-.556-1.142-1.37-.115-.4-.157-.657-.143-.785 0-.257.114-.4.343-.4l.385.1c.2.015.657.029 1.399.072s1.27.057 1.599.057l.828-.029a185.33 185.33 0 0 1 4.553-6.752c-1.285 1.057-2.712 1.585-4.282 1.585-.743 0-1.385-.171-1.913-.528-.543-.357-.8-.814-.8-1.356 0-.543.2-.971.614-1.3.414-.313.8-.47 1.17-.47.372 0 .558.057.558.17 0 .044-.058.087-.157.13-.1.056-.157.1-.157.142 0 .157.17.3.513.414.343.114.728.186 1.157.186.428 0 .942-.129 1.57-.372.628-.242 1.27-.57 1.941-.956.942-.542 1.685-1 2.227-1.356.314-.157.6-.228.885-.228.286 0 .471.028.6.1a.888.888 0 0 1 .271.185c.057.057.128.143.185.243.072.1.129.185.2.228.057.057.1.114.1.186 0 .071-.043.171-.114.328-.071.143-.443.742-1.113 1.784-.671 1.042-1.542 2.37-2.598 3.983a274.512 274.512 0 0 0-2.313 3.569c2.612 0 5.424-.043 8.451-.143 3.682-5.81 5.624-8.85 5.824-9.136.199-.285.385-.471.556-.557.172-.085.371-.128.614-.128l1.242.1ZM116.335 18.607c.3 0 .599.129.899.4.314.271.457.67.457 1.213s-.186 1.242-.571 2.113a14.119 14.119 0 0 1-1.57 2.64 22.803 22.803 0 0 1-2.184 2.513 11.64 11.64 0 0 1-2.57 1.927c-.928.5-1.756.756-2.512.756-.757 0-1.356-.242-1.813-.713-.457-.471-.685-1.128-.685-1.97 0-.842.214-1.785.628-2.798a9.993 9.993 0 0 1 1.599-2.712 15.597 15.597 0 0 1 2.127-2.113c1.584-1.285 2.983-1.912 4.182-1.912.542 0 .942.128 1.213.4.1.085.143.17.143.228v.085c.157-.057.371-.057.657-.057Zm-1.471 1.941h-.099c-.343 0-.514-.242-.514-.742-.714.229-1.456.642-2.241 1.228a10.726 10.726 0 0 0-2.099 2.084c-1.256 1.599-1.884 2.955-1.898 4.054 0 .542.2.813.599.813.4 0 .999-.27 1.785-.785.785-.514 1.57-1.27 2.355-2.255.771-.97 1.356-1.827 1.741-2.54.386-.715.586-1.2.586-1.471-.015-.257-.086-.386-.215-.386ZM117.377 29.841l-.714-.028h-.257a.986.986 0 0 1-.314-.172c-.114-.085-.2-.157-.257-.185-.057-.029-.085-.114-.085-.214 0-.1.042-.286.114-.529 1.898-4.182 3.74-7.537 5.524-10.035.2-.27.514-.485.942-.628a4.023 4.023 0 0 1 1.271-.214c.242 0 .371.186.371.571 0 .114-.043.257-.115.428-.071.186-.271.471-.585.886-.314.413-.685.884-1.113 1.398-.428.514-.671.828-.728.914 1.342-1.385 2.541-2.412 3.626-3.098 1.084-.67 1.855-1.013 2.341-1.013.485 0 .856.143 1.113.414s.385.57.385.885c0 .314-.028.585-.071.785a2.62 2.62 0 0 1-.243.657c-.114.228-.214.428-.299.585a6.692 6.692 0 0 1-.414.628c-.2.257-.329.442-.4.542-.071.1-.228.286-.457.557a7.28 7.28 0 0 0-.371.457c.271-.271.657-.671 1.142-1.213a50.66 50.66 0 0 1 1.242-1.342c.342-.357.756-.771 1.27-1.228.514-.457.985-.828 1.413-1.099 1.057-.657 2.127-1 3.212-1 .371 0 .685.115.942.358.257.242.386.514.386.842 0 .328-.4 1.113-1.185 2.34-.785 1.228-1.585 2.47-2.37 3.712-.785 1.242-1.184 2.027-1.184 2.355 0 .443.085.714.242.8.172.085.371.114.6.1.228-.014.571-.171.985-.457a8.139 8.139 0 0 0 1.127-.885c.543-.485 1.028-.956 1.499-1.413.1-.086.2-.129.329-.129.185 0 .299.143.342.429.043.285.057.57.057.885 0 .314-.028.514-.085.628-.286.542-.914 1.213-1.87 2.012-.971.786-1.899 1.185-2.784 1.185-.114 0-.185 0-.228-.014-.999-.1-1.699-.371-2.084-.828-.386-.457-.571-1-.571-1.613 0-.614.214-1.385.642-2.27.428-.885.885-1.698 1.399-2.412s.971-1.37 1.399-1.956c.428-.585.642-.899.642-.942 0-.043-.043-.071-.114-.071-.3 0-.971.485-2.027 1.47-1.784 1.67-3.326 3.283-4.625 4.825-.343.414-1.156 1.442-2.427 3.112-.142.2-.385.3-.699.3-.314 0-.642-.058-.985-.186-.343-.128-.514-.286-.514-.471 0-.1.771-1.47 2.327-4.111s2.327-4.083 2.327-4.311c0-.243-.143-.357-.429-.357-.285 0-.885.428-1.784 1.285-2.469 2.355-4.382 4.71-5.738 7.037-.086.143-.257.357-.514.642-.257.286-.486.4-.571.4Z"/><path d="M145.683 18.807c0 .642-.257 1.213-.785 1.699-.528.485-1.113.728-1.784.728-.214 0-.357-.058-.428-.157-.072-.1-.1-.243-.1-.4 0-.157.014-.328.057-.485-.357.114-.743.3-1.171.542-.428.243-.956.6-1.584 1.085-.628.485-.942.828-.942 1.07 0 .072.114.115.342.115.229 0 .585-.086 1.056-.243.472-.157.814-.243 1-.243.185 0 .314.015.371.029.128.071.257.214.414.442.143.229.214.414.214.543 0 .128-.129.3-.385.514a2.833 2.833 0 0 1-.857.485c-.328.114-.542.2-.642.257-2.056 1.156-3.084 1.941-3.084 2.37 0 .756.643 1.141 1.942 1.141.828 0 1.67-.256 2.498-.785.713-.442 1.356-.899 1.927-1.37.571-.457.928-.742 1.085-.856.157-.115.271-.157.342-.157.257 0 .386.285.386.856s-.029.942-.1 1.113c-.072.186-.257.4-.585.671-2.085 1.699-4.069 2.555-5.924 2.555-1 0-1.785-.142-2.384-.413-1.099-.5-1.642-1.257-1.642-2.284 0-1.342.928-2.37 2.798-3.055-.371-.172-.614-.371-.714-.643-.114-.257-.157-.67-.157-1.241 0-.571.271-1.17.8-1.813a6.204 6.204 0 0 1 1.955-1.57c1.713-.928 3.255-1.385 4.597-1.385.328 0 .642.071.985.228.342.157.499.371.499.657Z"/></g><path d="M.982 33.795c3.754 1.57 7.58 2.784 11.477 3.712a86.927 86.927 0 0 0 11.748 2.084c1.97.27 3.954.3 5.91.485 1.984.014 3.954.171 5.923.057l2.955-.071c.985-.015 1.97-.143 2.955-.2.985-.086 1.97-.129 2.94-.257l2.927-.414c3.925-.428 7.737-1.342 11.534-2.441 3.84-1.056 7.465-2.455 11.305-3.911 3.926-1.442 8.18-2.384 12.49-1.927 2.127.27 4.269.956 6.01 2.212 1.756 1.242 3.012 3.012 3.811 4.868-1.199-1.656-2.698-3.012-4.425-3.854-1.727-.842-3.626-1.185-5.51-1.128-3.811.057-7.565 1.328-11.091 2.926a94.62 94.62 0 0 1-11.377 4.697c-3.94 1.27-8.008 2.284-12.133 2.797-8.208 1.085-16.616 1.1-24.724-.542-4.068-.742-8.036-1.898-11.876-3.369C8.02 37.992 4.294 36.208.982 33.795ZM137.49 10.028c-3.184-1.356-6.424-2.412-9.707-3.24-3.269-.871-6.581-1.485-9.907-1.913-1.655-.257-3.34-.314-4.996-.514-1.67-.043-3.326-.214-4.996-.143-.828.015-1.67.015-2.498 0-.828 0-1.67.086-2.498.115-.828.057-1.67.07-2.498.157l-2.484.3c-3.326.27-6.552.956-9.778 1.798-3.269.785-6.366 1.898-9.664 3.012-3.383 1.127-7.051 1.813-10.734 1.299-1.813-.3-3.64-.942-5.082-2.084-1.47-1.128-2.47-2.67-3.083-4.283 1.013 1.414 2.27 2.57 3.711 3.284 1.442.713 3.026 1.013 4.611.999 3.198 0 6.366-1.028 9.364-2.313 3.055-1.456 6.41-2.74 9.75-3.797C90.369 1.692 93.88.921 97.392.55c7.009-.742 14.175-.571 21.041 1.056 3.44.728 6.795 1.842 10.007 3.212 3.226 1.399 6.337 3.026 9.05 5.21Z" fill="#292F36"/></svg><svg width="118" height="48" fill="none" viewBox="0 0 118 48" id="05" x="164" xmlns="http://www.w3.org/2000/svg"><g fill="#292F36"><path d="M.683 29.784V.578h17.2V29.77H.684v.014ZM15.8 22.99l.442-3.226-1.598-.157-.486 2.484c-.999.5-2.227.742-3.697.742-1.998 0-3.583-.628-4.739-1.898-1.17-1.27-1.741-2.94-1.741-5.025 0-2.027.57-3.697 1.698-5.01 1.128-1.313 2.612-1.97 4.454-1.97.942 0 1.741.114 2.384.328.642.214 1.227.5 1.784.871l.471 2.455 1.627-.157-.47-3.226c-.686-.585-1.5-1.056-2.442-1.427-.942-.357-2.112-.543-3.497-.543-1.641 0-3.055.4-4.24 1.214a8.287 8.287 0 0 0-2.769 3.211 9.709 9.709 0 0 0-.985 4.326c0 2.44.757 4.482 2.27 6.11 1.513 1.626 3.483 2.44 5.924 2.44 2.398 0 4.268-.514 5.61-1.542ZM23.722 29.784V.578h7.394V29.77h-7.394v.014Zm.785-5.51h5.838v-1.47h-2.012V6.502h-3.854v1.47h2.041v14.832h-2.013v1.47ZM36.955 29.784V.578h12.99V29.77h-12.99v.014Zm2.355-16.13-.414 2.655 1.499.185.442-1.984c.643-.314 1.37-.47 2.227-.47 1.028 0 1.728.256 2.084.77.357.514.529 1.185.529 2.013v1.028a19.304 19.304 0 0 0-1-.072c-.356-.014-.7-.028-1.042-.028a9.785 9.785 0 0 0-3.654.685c-1.142.457-1.713 1.413-1.713 2.855 0 1.227.386 2.07 1.17 2.526.786.471 1.557.7 2.313.7.928 0 1.727-.243 2.384-.728.657-.486 1.17-1.028 1.542-1.656v.057c.028 1.556.728 2.327 2.098 2.327.528 0 1.028-.129 1.499-.386l-.029-1.184c-.228.1-.485.157-.77.157-.657 0-.986-.414-.986-1.242v-5.467c0-2.57-1.37-3.854-4.11-3.854-.757 0-1.47.085-2.142.256a6.861 6.861 0 0 0-1.927.857Zm6.352 6.31c-.071.941-.456 1.698-1.156 2.24-.7.557-1.442.828-2.241.828-.5 0-.985-.142-1.442-.414-.47-.27-.7-.785-.7-1.527 0-.9.358-1.47 1.043-1.742.7-.27 1.47-.4 2.34-.4.386 0 .757.015 1.114.058.357.028.714.057 1.028.071v.885h.014ZM55.797 29.784V.578h11.805V29.77H55.797v.014Zm10.563-8.836c0-.913-.242-1.584-.728-2.027-.485-.442-1.07-.742-1.784-.913a29.153 29.153 0 0 0-2.113-.429c-.7-.114-1.299-.3-1.784-.542-.485-.243-.728-.671-.728-1.285 0-.585.228-1.013.7-1.299.47-.285 1.056-.414 1.784-.414.842 0 1.627.186 2.355.571l.286 1.856 1.498-.186-.285-2.683c-.485-.3-1.07-.543-1.77-.742-.7-.2-1.442-.315-2.241-.315a5.92 5.92 0 0 0-2.926.757c-.9.5-1.342 1.356-1.342 2.584 0 .899.242 1.556.728 1.97.485.428 1.084.713 1.813.885.727.17 1.441.314 2.155.442.714.114 1.313.314 1.799.571.485.257.728.7.728 1.342 0 .656-.314 1.142-.943 1.456-.628.314-1.341.471-2.155.471-.914 0-1.77-.186-2.555-.571l.071-1.527-1.442-.157-.356 2.612c.5.328 1.156.6 1.955.814a9.27 9.27 0 0 0 2.413.328c1.384 0 2.54-.314 3.468-.957.928-.613 1.4-1.498 1.4-2.612ZM73.44 29.784V.578h11.805V29.77H73.44v.014Zm10.564-8.836c0-.913-.243-1.584-.729-2.027-.485-.442-1.07-.742-1.784-.913a29.153 29.153 0 0 0-2.112-.429c-.7-.114-1.3-.3-1.785-.542-.485-.243-.728-.671-.728-1.285 0-.585.229-1.013.7-1.299.47-.285 1.056-.414 1.784-.414.842 0 1.627.186 2.355.571l.286 1.856 1.499-.186-.286-2.683c-.485-.3-1.07-.543-1.77-.742-.7-.2-1.442-.315-2.241-.315a5.92 5.92 0 0 0-2.926.757c-.9.5-1.342 1.356-1.342 2.584 0 .899.243 1.556.728 1.97.485.428 1.085.713 1.813.885a41.33 41.33 0 0 0 2.155.442c.714.114 1.314.314 1.799.571.485.257.728.7.728 1.342 0 .656-.314 1.142-.942 1.456-.628.314-1.342.471-2.156.471-.913 0-1.77-.186-2.555-.571l.072-1.527-1.442-.157-.357 2.612c.5.328 1.156.6 1.956.814.799.214 1.598.328 2.412.328 1.385 0 2.54-.314 3.469-.957.927-.613 1.398-1.498 1.398-2.612ZM91.084 29.784V.578h7.78V29.77h-7.78v.014Zm1.142-5.51h5.838v-1.47h-2.013v-10.02h-3.868v1.47h2.07v8.55H92.24v1.47h-.014ZM94.053 7.46v2.355h1.97V7.459h-1.97ZM104.702 29.784V.578h12.433V29.77h-12.433v.014Zm11.319-9.378-1.556-.343c-.342 1.942-1.384 2.912-3.097 2.912-1.142 0-2.013-.385-2.612-1.156-.6-.77-.9-1.856-.9-3.226 0-1.242.272-2.298.8-3.183.528-.885 1.413-1.314 2.64-1.314.943 0 1.771.214 2.456.643l.442 1.941 1.499-.186-.442-2.769c-.586-.442-1.199-.756-1.842-.928a8.124 8.124 0 0 0-2.098-.257c-1.785 0-3.141.629-4.026 1.885-.899 1.256-1.341 2.683-1.341 4.268 0 1.841.471 3.283 1.427 4.296.942 1.028 2.213 1.542 3.797 1.542 1.585 0 2.755-.442 3.497-1.313.743-.885 1.199-1.813 1.356-2.812ZM8.12 45.729a3.41 3.41 0 0 1-1.442 1.399c-.642.328-1.398.5-2.283.5H1.839v-8.052h2.556c.885 0 1.655.157 2.283.486.629.328 1.114.785 1.442 1.399.329.613.486 1.313.486 2.14 0 .814-.158 1.528-.486 2.128Zm-1.413.157c.557-.543.828-1.3.828-2.284 0-.985-.271-1.742-.828-2.284-.557-.543-1.356-.814-2.412-.814H2.853V46.7h1.442c1.056 0 1.855-.27 2.412-.813ZM13.901 40.419v2.755h3.055v.799h-3.055v2.812H17.3v.842h-4.44v-8.05h4.44v.842H13.9ZM26.32 46.6c-.185.328-.457.6-.828.799-.37.2-.828.314-1.384.314-.529 0-1.014-.1-1.428-.285a2.644 2.644 0 0 1-.999-.8 2.375 2.375 0 0 1-.428-1.156h1.113c.029.228.1.457.229.67.128.215.328.4.57.543.243.143.543.214.9.214.457 0 .813-.114 1.056-.37.243-.258.371-.558.371-.943 0-.328-.085-.6-.257-.8a1.905 1.905 0 0 0-.628-.485c-.242-.114-.6-.242-1.027-.385a12.69 12.69 0 0 1-1.228-.471 1.964 1.964 0 0 1-.785-.671c-.214-.3-.329-.685-.329-1.17 0-.414.1-.786.3-1.114.2-.314.486-.57.871-.742.371-.171.828-.257 1.328-.257.785 0 1.427.185 1.884.57.47.386.728.871.813 1.471h-1.113c-.057-.314-.228-.6-.485-.842-.271-.243-.628-.371-1.085-.371-.414 0-.757.114-1 .328-.256.214-.37.528-.37.914 0 .314.085.57.242.756.171.2.371.343.614.457.243.114.585.228 1 .371.513.171.927.328 1.255.485.314.157.586.386.8.686.214.3.328.713.328 1.227a2.5 2.5 0 0 1-.3 1.056ZM31.887 39.576v8.051h-1.042v-8.05h1.042ZM42.422 40.19c.642.471 1.07 1.1 1.285 1.899h-1.1a2.4 2.4 0 0 0-.956-1.17c-.443-.3-.97-.443-1.585-.443-.542 0-1.042.128-1.47.385a2.79 2.79 0 0 0-1.027 1.085c-.243.471-.372 1.028-.372 1.67 0 .657.129 1.228.371 1.699.243.47.6.842 1.043 1.099.442.257.956.385 1.541.385.5 0 .942-.114 1.356-.314a2.74 2.74 0 0 0 1.014-.928c.27-.4.414-.885.47-1.427h-3.168v-.77h4.04v.956a4.09 4.09 0 0 1-.6 1.741c-.328.528-.77.928-1.328 1.228-.556.3-1.184.457-1.898.457-.77 0-1.456-.172-2.056-.514a3.495 3.495 0 0 1-1.384-1.456c-.329-.614-.5-1.328-.5-2.127 0-.8.171-1.513.5-2.127.328-.614.8-1.114 1.384-1.456.586-.343 1.27-.528 2.042-.528.97-.029 1.755.2 2.398.656ZM54.398 47.627h-1.042l-4.182-6.366v6.366h-1.042v-8.05h1.042l4.182 6.366v-6.367h1.042v8.051ZM69.415 46.6c-.186.328-.457.6-.828.799-.371.2-.828.314-1.385.314a3.49 3.49 0 0 1-1.427-.285 2.643 2.643 0 0 1-1-.8 2.375 2.375 0 0 1-.428-1.156h1.114c.029.228.1.457.228.67.129.215.329.4.571.543.243.143.543.214.9.214.456 0 .813-.114 1.056-.37.243-.258.371-.558.371-.943 0-.328-.086-.6-.257-.8a1.905 1.905 0 0 0-.628-.485c-.243-.114-.6-.242-1.028-.385a12.694 12.694 0 0 1-1.227-.471 1.965 1.965 0 0 1-.785-.671c-.215-.3-.329-.685-.329-1.17 0-.414.1-.786.3-1.114.2-.314.485-.57.87-.742.372-.171.829-.257 1.328-.257.785 0 1.428.185 1.885.57.47.386.728.871.813 1.471h-1.113c-.057-.314-.229-.6-.486-.842-.27-.243-.628-.371-1.084-.371-.414 0-.757.114-1 .328-.257.214-.37.528-.37.914 0 .314.085.57.242.756.171.2.371.343.614.457.242.114.585.228.999.371.514.171.928.328 1.256.485.314.157.585.386.8.686.213.3.328.713.328 1.227a2.5 2.5 0 0 1-.3 1.056ZM78.88 39.576v.843h-2.27v7.208h-1.057V40.42h-2.27v-.843h5.596ZM83.732 39.576v4.825c0 .785.172 1.37.529 1.756.356.371.828.57 1.456.57.613 0 1.085-.185 1.427-.57.343-.385.514-.956.514-1.742v-4.824H88.7v4.824c0 1.1-.271 1.928-.814 2.47-.542.557-1.27.828-2.184.828-.899 0-1.627-.271-2.17-.828-.542-.557-.813-1.37-.813-2.47v-4.824h1.013v-.015ZM99.449 45.729a3.41 3.41 0 0 1-1.442 1.399c-.642.328-1.399.5-2.284.5h-2.555v-8.052h2.555c.885 0 1.656.157 2.284.486.628.328 1.113.785 1.442 1.399.328.613.485 1.313.485 2.14 0 .814-.157 1.528-.485 2.128Zm-1.4.157c.557-.543.829-1.3.829-2.284 0-.985-.272-1.742-.828-2.284-.557-.543-1.356-.814-2.413-.814h-1.441V46.7h1.441c1.043 0 1.856-.27 2.413-.813ZM105.244 39.576v8.051h-1.042v-8.05h1.042ZM115.465 40.005a3.79 3.79 0 0 1 1.413 1.47c.342.628.514 1.342.514 2.127 0 .785-.172 1.499-.514 2.127a3.79 3.79 0 0 1-1.413 1.47c-.6.357-1.271.528-2.013.528s-1.428-.171-2.027-.528a3.811 3.811 0 0 1-1.427-1.47c-.343-.628-.514-1.342-.514-2.127 0-.785.171-1.499.514-2.127a3.716 3.716 0 0 1 1.427-1.47 3.943 3.943 0 0 1 2.027-.529c.742 0 1.413.172 2.013.529Zm-3.512.828a2.562 2.562 0 0 0-1.028 1.099c-.242.47-.371 1.027-.371 1.67 0 .628.129 1.185.371 1.67.243.485.586.842 1.028 1.1.443.256.928.385 1.485.385.542 0 1.042-.129 1.484-.386a2.637 2.637 0 0 0 1.028-1.099c.243-.471.371-1.028.371-1.656 0-.642-.128-1.199-.371-1.67a2.637 2.637 0 0 0-1.028-1.1 2.875 2.875 0 0 0-1.484-.384 2.771 2.771 0 0 0-1.485.37Z"/></g></svg></svg>